# xmcd CD database file
#
# Track frame offsets:
#	150
#	54407
#	78922
#	92087
#	104852
#	126452
#	159935
#	170750
#	183527
#
# Disc length: 2761 seconds
#
# Revision: 0
# Processed by: cddbd v1.4PL0 Copyright (c) Steve Scherf et al.
# Submitted via: CDex 1.50Beta7
#
DISCID=780ac709
DTITLE=chicago underground duo - synesthesia
DYEAR=1900
DGENRE=Jazz
TTITLE0=blue sparks from her,and the scent of lighting
TTITLE1=threads on the face
TTITLE2=bellatron
TTITLE3=red gradations
TTITLE4=fluxus
TTITLE5=labyrinth
TTITLE6=the unique container
TTITLE7=tram transfer nine
TTITLE8=mca
EXTD=
EXTT0=
EXTT1=
EXTT2=
EXTT3=
EXTT4=
EXTT5=
EXTT6=
EXTT7=
EXTT8=
PLAYORDER=
